<?xml version="1.0" ?>
<svg width="512" height="512" viewBox="0 0 20 20" version="1.1" xmlns="http://www.w3.org/2000/svg">
<g id="layer1">
<path d="M 3 0 L 3 20 L 17 20 L 17 19 L 16 19 L 4 19 L 4 1 L 12 1 L 12 4 L 12 5 L 16 5 L 16 12 L 17 12 L 17 5 L 17 4 L 13 0 L 12 0 L 3 0 z M 13 1.3535156 L 15.646484 4 L 13 4 L 13 1.3535156 z M 10.513672 12.998047 C 10.232218 12.990347 9.999924 13.216488 10 13.498047 L 10 17.998047 L 11 17.998047 L 11 15 L 13.099609 17.798828 C 13.388057 18.184235 14.001111 17.979441 14 17.498047 L 14 12.998047 L 13 12.998047 L 13 15.996094 L 10.900391 13.197266 C 10.808631 13.07533 10.666224 13.001966 10.513672 12.998047 z M 5 13 L 5 18 L 6 18 L 6 16 L 7.5 16 L 7.65625 15.992188 L 7.8125 15.966797 L 7.9628906 15.925781 L 8.109375 15.869141 L 8.25 15.798828 L 8.3828125 15.712891 L 8.5039062 15.615234 L 8.6152344 15.503906 L 8.7128906 15.380859 L 8.7988281 15.25 L 8.8691406 15.109375 L 8.9257812 14.962891 L 8.9667969 14.8125 L 8.9921875 14.65625 L 9 14.5 L 8.9921875 14.34375 L 8.9667969 14.1875 L 8.9257812 14.037109 L 8.8691406 13.890625 L 8.7988281 13.75 L 8.7128906 13.617188 L 8.6152344 13.496094 L 8.5039062 13.384766 L 8.3828125 13.287109 L 8.25 13.201172 L 8.109375 13.128906 L 7.9628906 13.072266 L 7.8125 13.033203 L 7.65625 13.007812 L 7.5 13 L 5 13 z M 17 13 L 16.816406 13.007812 L 16.632812 13.033203 L 16.453125 13.076172 L 16.277344 13.134766 L 16.107422 13.208984 L 15.947266 13.298828 L 15.794922 13.404297 L 15.652344 13.521484 L 15.521484 13.652344 L 15.404297 13.794922 L 15.300781 13.947266 L 15.208984 14.107422 L 15.134766 14.277344 L 15.076172 14.451172 L 15.035156 14.632812 L 15.007812 14.816406 L 15 15 L 15 16 L 15.007812 16.183594 L 15.035156 16.367188 L 15.076172 16.546875 L 15.134766 16.722656 L 15.208984 16.890625 L 15.300781 17.052734 L 15.404297 17.205078 L 15.521484 17.347656 L 15.652344 17.478516 L 15.794922 17.595703 L 15.947266 17.699219 L 16.107422 17.791016 L 16.277344 17.865234 L 16.453125 17.923828 L 16.632812 17.964844 L 16.816406 17.992188 L 17 18 L 17.183594 17.992188 L 17.367188 17.964844 L 17.546875 17.923828 L 17.722656 17.865234 L 17.892578 17.791016 L 18.052734 17.699219 L 18.205078 17.595703 L 18.347656 17.478516 L 18.478516 17.347656 L 18.595703 17.205078 L 18.699219 17.052734 L 18.791016 16.890625 L 18.865234 16.722656 L 18.923828 16.546875 L 18.964844 16.367188 L 18.992188 16.183594 L 19 16 L 19 15 L 17 15 L 17 16 L 18 16 L 17.992188 16.130859 L 17.966797 16.257812 L 17.923828 16.382812 L 17.865234 16.5 L 17.792969 16.607422 L 17.707031 16.707031 L 17.609375 16.792969 L 17.5 16.865234 L 17.382812 16.923828 L 17.259766 16.964844 L 17.130859 16.992188 L 17 17 L 16.869141 16.992188 L 16.740234 16.964844 L 16.617188 16.923828 L 16.5 16.865234 L 16.390625 16.792969 L 16.292969 16.707031 L 16.207031 16.607422 L 16.134766 16.5 L 16.076172 16.382812 L 16.033203 16.257812 L 16.007812 16.130859 L 16 16 L 16 15 L 16.007812 14.869141 L 16.033203 14.740234 L 16.076172 14.617188 L 16.134766 14.5 L 16.207031 14.390625 L 16.292969 14.292969 L 16.390625 14.207031 L 16.5 14.134766 L 16.617188 14.076172 L 16.740234 14.033203 L 16.869141 14.007812 L 17 14 L 17.130859 14.007812 L 17.259766 14.033203 L 17.382812 14.076172 L 17.5 14.134766 L 17.609375 14.207031 L 17.707031 14.292969 L 18.414062 13.585938 L 18.347656 13.521484 L 18.205078 13.404297 L 18.052734 13.298828 L 17.892578 13.208984 L 17.722656 13.134766 L 17.546875 13.076172 L 17.367188 13.033203 L 17.183594 13.007812 L 17 13 z M 6 14 L 7.5 14 L 7.5917969 14.007812 L 7.6796875 14.033203 L 7.7636719 14.074219 L 7.8359375 14.130859 L 7.8984375 14.199219 L 7.9472656 14.277344 L 7.9804688 14.363281 L 7.9980469 14.453125 L 7.9980469 14.546875 L 7.9804688 14.636719 L 7.9472656 14.722656 L 7.8984375 14.800781 L 7.8359375 14.869141 L 7.7636719 14.925781 L 7.6796875 14.964844 L 7.5917969 14.990234 L 7.5 15 L 6 15 L 6 14 z " style="fill:currentColor; fill-opacity:1; stroke:none; stroke-width:0px;"/>
</g>
</svg>
