<?xml version="1.0" ?>
<svg width="512" height="512" viewBox="0 0 20 20" version="1.1" xmlns="http://www.w3.org/2000/svg">
<g id="layer1">
<path d="M 3 0 L 3 20 L 17 20 L 17 19 L 16 19 L 4 19 L 4 1 L 12 1 L 12 4 L 12 5 L 16 5 L 16 12 L 17 12 L 17 5 L 17 4 L 13 0 L 12 0 L 3 0 z M 13 1.3535156 L 15.646484 4 L 13 4 L 13 1.3535156 z M 8 13 L 8 16 L 7.9921875 16.130859 L 7.9667969 16.257812 L 7.9238281 16.382812 L 7.8652344 16.5 L 7.7929688 16.607422 L 7.7070312 16.707031 L 7.609375 16.792969 L 7.5 16.865234 L 7.3828125 16.923828 L 7.2597656 16.964844 L 7.1308594 16.992188 L 7 17 L 6.8691406 16.992188 L 6.7402344 16.964844 L 6.6171875 16.923828 L 6.5 16.865234 L 6.390625 16.792969 L 6.2929688 16.707031 L 6.2070312 16.607422 L 6.1347656 16.5 L 6.0761719 16.382812 L 6.0332031 16.257812 L 6.0078125 16.130859 L 6 16 L 5 16 L 5.0078125 16.183594 L 5.0351562 16.367188 L 5.0761719 16.546875 L 5.1347656 16.722656 L 5.2089844 16.890625 L 5.3007812 17.052734 L 5.4042969 17.205078 L 5.5214844 17.347656 L 5.6523438 17.478516 L 5.7949219 17.595703 L 5.9472656 17.699219 L 6.1074219 17.791016 L 6.2773438 17.865234 L 6.453125 17.923828 L 6.6328125 17.964844 L 6.8164062 17.992188 L 7 18 L 7.1835938 17.992188 L 7.3671875 17.964844 L 7.546875 17.923828 L 7.7226562 17.865234 L 7.8925781 17.791016 L 8.0527344 17.699219 L 8.2050781 17.595703 L 8.3476562 17.478516 L 8.4785156 17.347656 L 8.5957031 17.205078 L 8.6992188 17.052734 L 8.7910156 16.890625 L 8.8652344 16.722656 L 8.9238281 16.546875 L 8.9648438 16.367188 L 8.9921875 16.183594 L 9 16 L 9 13 L 8 13 z M 10 13 L 10 18 L 11 18 L 11 16 L 12.5 16 L 12.65625 15.992188 L 12.8125 15.966797 L 12.962891 15.925781 L 13.109375 15.869141 L 13.25 15.798828 L 13.382812 15.712891 L 13.503906 15.615234 L 13.615234 15.503906 L 13.712891 15.380859 L 13.798828 15.25 L 13.869141 15.109375 L 13.925781 14.962891 L 13.966797 14.8125 L 13.992188 14.65625 L 14 14.5 L 13.992188 14.34375 L 13.966797 14.1875 L 13.925781 14.037109 L 13.869141 13.890625 L 13.798828 13.75 L 13.712891 13.617188 L 13.615234 13.496094 L 13.503906 13.384766 L 13.382812 13.287109 L 13.25 13.201172 L 13.109375 13.128906 L 12.962891 13.072266 L 12.8125 13.033203 L 12.65625 13.007812 L 12.5 13 L 10 13 z M 17 13 L 16.816406 13.007812 L 16.632812 13.033203 L 16.453125 13.076172 L 16.277344 13.134766 L 16.107422 13.208984 L 15.947266 13.298828 L 15.794922 13.404297 L 15.652344 13.521484 L 15.521484 13.652344 L 15.404297 13.794922 L 15.300781 13.947266 L 15.208984 14.107422 L 15.134766 14.277344 L 15.076172 14.451172 L 15.035156 14.632812 L 15.007812 14.816406 L 15 15 L 15 16 L 15.007812 16.183594 L 15.035156 16.367188 L 15.076172 16.546875 L 15.134766 16.722656 L 15.208984 16.890625 L 15.300781 17.052734 L 15.404297 17.205078 L 15.521484 17.347656 L 15.652344 17.478516 L 15.794922 17.595703 L 15.947266 17.699219 L 16.107422 17.791016 L 16.277344 17.865234 L 16.453125 17.923828 L 16.632812 17.964844 L 16.816406 17.992188 L 17 18 L 17.183594 17.992188 L 17.367188 17.964844 L 17.546875 17.923828 L 17.722656 17.865234 L 17.892578 17.791016 L 18.052734 17.699219 L 18.205078 17.595703 L 18.347656 17.478516 L 18.478516 17.347656 L 18.595703 17.205078 L 18.699219 17.052734 L 18.791016 16.890625 L 18.865234 16.722656 L 18.923828 16.546875 L 18.964844 16.367188 L 18.992188 16.183594 L 19 16 L 19 15 L 17 15 L 17 16 L 18 16 L 17.992188 16.130859 L 17.966797 16.257812 L 17.923828 16.382812 L 17.865234 16.5 L 17.792969 16.607422 L 17.707031 16.707031 L 17.609375 16.792969 L 17.5 16.865234 L 17.382812 16.923828 L 17.259766 16.964844 L 17.130859 16.992188 L 17 17 L 16.869141 16.992188 L 16.740234 16.964844 L 16.617188 16.923828 L 16.5 16.865234 L 16.390625 16.792969 L 16.292969 16.707031 L 16.207031 16.607422 L 16.134766 16.5 L 16.076172 16.382812 L 16.033203 16.257812 L 16.007812 16.130859 L 16 16 L 16 15 L 16.007812 14.869141 L 16.033203 14.740234 L 16.076172 14.617188 L 16.134766 14.5 L 16.207031 14.390625 L 16.292969 14.292969 L 16.390625 14.207031 L 16.5 14.134766 L 16.617188 14.076172 L 16.740234 14.033203 L 16.869141 14.007812 L 17 14 L 17.130859 14.007812 L 17.259766 14.033203 L 17.382812 14.076172 L 17.5 14.134766 L 17.609375 14.207031 L 17.707031 14.292969 L 18.414062 13.585938 L 18.347656 13.521484 L 18.205078 13.404297 L 18.052734 13.298828 L 17.892578 13.208984 L 17.722656 13.134766 L 17.546875 13.076172 L 17.367188 13.033203 L 17.183594 13.007812 L 17 13 z M 11 14 L 12.5 14 L 12.591797 14.007812 L 12.679688 14.033203 L 12.763672 14.074219 L 12.835938 14.130859 L 12.898438 14.199219 L 12.947266 14.277344 L 12.980469 14.363281 L 12.998047 14.453125 L 12.998047 14.546875 L 12.980469 14.636719 L 12.947266 14.722656 L 12.898438 14.800781 L 12.835938 14.869141 L 12.763672 14.925781 L 12.679688 14.964844 L 12.591797 14.990234 L 12.5 15 L 11 15 L 11 14 z " style="fill:currentColor; fill-opacity:1; stroke:none; stroke-width:0px;"/>
</g>
</svg>
