<svg xmlns="http://www.w3.org/2000/svg" viewBox="0 0 1280 905"
     preserveAspectRatio="xMidYMid meet">

  <g transform="translate(0.000000,905.000000) scale(0.100000,-0.100000)"
     fill="currentColor" stroke="none">
    <path d="M1873 8436 c-140 -44 -254 -168 -314 -343 -40 -118 -42 -211 -35
-2163 3 -1120 10 -1883 15 -1911 39 -185 137 -327 275 -394 l71 -35 2565 0
2565 0 71 35 c90 44 169 126 219 228 74 150 68 -23 72 2097 3 1308 1 1934 -7
1998 -25 225 -132 392 -297 470 l-58 27 -2550 2 c-2088 1 -2558 -1 -2592 -11z
m4015 -1849 c73 -21 132 -58 185 -117 43 -48 102 -169 89 -181 -8 -7 -290 -59
-321 -59 -12 0 -21 7 -21 15 0 8 -17 32 -39 54 -89 89 -256 76 -340 -26 -49
-60 -65 -121 -65 -253 0 -178 38 -266 137 -316 67 -34 182 -35 259 -3 94 40
98 45 98 105 l0 54 -115 0 -115 0 0 120 0 120 270 0 269 0 3 -187 c2 -104 2
-215 0 -248 l-4 -61 -59 -38 c-148 -96 -295 -136 -496 -136 -222 0 -333 38
-443 149 -108 109 -149 214 -157 402 -4 98 -2 144 11 202 50 223 210 377 434
417 72 13 358 4 420 -13z m-2698 -427 l0 -430 275 0 275 0 0 -145 0 -145 -452
2 -453 3 -3 560 c-1 308 0 566 3 573 3 9 49 12 180 12 l175 0 0 -430z m1445
415 c97 -26 165 -79 207 -165 20 -39 23 -61 23 -170 0 -109 -3 -131 -23 -170
-73 -148 -189 -199 -449 -200 l-133 0 -2 -212 -3 -213 -175 0 -175 0 -3 573
-2 572 338 0 c272 0 349 -3 397 -15z"/>
    <path d="M4260 6230 l0 -133 85 6 c47 3 100 13 119 22 58 28 82 105 51 165
-23 44 -67 62 -167 68 l-88 5 0 -133z"/>
    <path d="M7840 7321 c-51 -16 -89 -41 -128 -86 -78 -89 -72 78 -72 -1987 l0
-1848 -137 0 c-76 0 -1457 0 -3069 0 -2567 0 -2937 -2 -2981 -15 -38 -11 -63
-28 -102 -70 -62 -65 -102 -147 -138 -281 -25 -93 -27 -112 -27 -324 0 -213 1
-230 27 -325 48 -178 116 -287 211 -338 40 -21 53 -22 418 -25 l377 -3 5 23
c2 13 12 66 21 118 70 393 350 748 729 925 495 232 1087 127 1472 -261 189
-190 311 -423 359 -684 9 -52 19 -101 21 -108 3 -10 338 -12 1651 -10 l1647 3
17 99 c96 545 521 969 1069 1067 122 22 355 17 480 -10 526 -115 920 -514
1016 -1030 9 -47 18 -97 21 -110 l4 -24 202 6 c150 4 216 9 257 22 213 66 353
227 412 474 17 73 19 107 15 221 -6 150 -21 219 -72 325 -46 96 -117 181 -198
235 l-67 45 0 450 c0 247 -1 682 -3 965 l-2 515 -32 75 c-76 183 -172 390
-269 580 -379 748 -734 1225 -1014 1363 l-65 32 -1015 2 c-558 1 -1026 -2
-1040 -6z m1923 -748 c35 -16 62 -45 151 -163 175 -232 350 -550 406 -738 24
-78 93 -72 -785 -72 -843 0 -828 -1 -855 49 -6 13 -10 173 -10 448 0 473 -1
463 63 482 50 15 995 9 1030 -6z"/>
    <path d="M3316 2964 c-419 -83 -742 -396 -848 -822 -28 -111 -30 -347 -5 -458
146 -641 783 -1004 1407 -802 278 89 524 317 646 596 66 154 77 215 78 422 1
164 -2 195 -22 270 -79 287 -255 520 -507 668 -93 55 -231 107 -334 126 -102
20 -318 20 -415 0z m324 -739 c134 -47 222 -175 222 -320 -1 -183 -128 -322
-311 -341 -96 -11 -190 24 -262 96 -80 79 -102 133 -103 245 0 79 3 96 27 142
86 166 258 238 427 178z"/>
    <path d="M9235 2969 c-275 -51 -542 -224 -697 -453 -59 -85 -133 -248 -158
-346 -31 -118 -38 -333 -16 -451 85 -451 420 -791 863 -875 107 -20 281 -22
383 -4 457 78 817 444 885 899 21 139 19 245 -10 394 -14 72 -61 200 -101 273
-161 299 -429 497 -756 559 -88 17 -311 19 -393 4z m266 -733 c107 -25 198
-98 243 -195 30 -66 30 -206 -1 -273 -50 -109 -164 -190 -286 -204 -130 -15
-262 56 -328 178 -32 60 -34 68 -34 163 0 89 3 105 27 150 50 93 123 154 218
179 69 19 92 19 161 2z"/>
  </g>
</svg>
