<svg xmlns="http://www.w3.org/2000/svg" width="653" height="590" viewBox="0 0 1306 1180">
<g transform="translate(0.000000,1180.000000) scale(0.100000,-0.100000)"
fill="#A32A29" stroke="none">
<path d="M7080 11194 c0 -104 27 -433 46 -559 171 -1147 983 -2902 1866 -4033
170 -218 309 -496 378 -758 11 -43 23 -86 26 -95 4 -14 -31 -16 -366 -15 -203
1 -370 -3 -370 -7 0 -5 10 -64 22 -130 20 -109 22 -155 22 -427 0 -338 -14
-466 -75 -719 -76 -308 -213 -599 -386 -819 -79 -99 -254 -270 -356 -346 -294
-220 -688 -376 -1127 -445 -404 -64 -892 -62 -1270 6 -486 86 -859 256 -1250
570 l-35 28 32 -40 c107 -135 471 -438 703 -587 357 -228 734 -386 1102 -462
353 -73 776 -75 1122 -6 604 122 1216 442 1626 850 295 295 493 621 634 1047
30 90 37 100 58 80 7 -7 30 -12 51 -12 21 1 40 -2 43 -6 2 -5 11 -6 19 -2 8 3
15 1 15 -5 0 -5 14 -9 30 -8 17 1 35 -3 41 -10 6 -7 19 -11 29 -9 11 2 22 0
25 -5 3 -5 12 -7 20 -3 8 3 15 0 15 -7 0 -10 4 -9 16 1 10 8 18 9 22 2 4 -5
19 -9 35 -9 15 1 27 -4 27 -10 0 -7 12 -10 30 -9 21 2 30 -2 30 -12 0 -13 3
-13 16 -2 10 8 18 9 22 2 4 -5 20 -9 35 -9 16 1 31 -2 33 -6 3 -4 11 -5 19 -1
8 3 15 1 15 -5 0 -5 14 -9 30 -8 20 1 30 -2 30 -12 0 -12 3 -12 16 -1 10 8 18
9 22 3 4 -6 21 -10 39 -11 26 0 32 4 37 26 3 14 14 70 26 125 87 409 83 856
-10 1241 -82 339 -226 655 -460 1005 -174 260 -311 437 -775 995 -303 365
-442 540 -612 769 -681 915 -1084 1792 -1303 2835 -11 52 -22 97 -25 99 -3 3
-5 -30 -5 -74z"/>
<path d="M6555 9803 c-383 -46 -492 -64 -705 -118 -522 -132 -995 -340 -1430
-629 -401 -266 -749 -586 -1053 -969 -76 -94 -200 -265 -219 -300 -9 -17 -8
-17 21 -2 17 9 134 43 259 76 222 58 228 61 257 97 17 20 65 76 108 124 609
683 1421 1149 2322 1332 184 37 487 75 603 76 56 0 63 2 58 18 -6 21 -32 177
-41 250 l-7 52 -71 -1 c-40 -1 -85 -4 -102 -6z"/>
<path d="M8177 9573 c26 -49 77 -140 114 -203 l67 -115 148 -59 c1289 -510
2257 -1642 2558 -2991 36 -164 64 -332 87 -530 21 -173 18 -696 -4 -875 -142
-1143 -692 -2129 -1587 -2841 -650 -518 -1484 -843 -2306 -899 -1102 -75
-2164 269 -3014 975 -117 98 -375 349 -461 450 -35 41 -66 75 -70 75 -3 0 -13
-26 -22 -59 -9 -32 -39 -112 -66 -176 l-50 -118 61 -68 c125 -139 380 -367
583 -520 505 -381 1121 -665 1745 -803 496 -110 1090 -136 1570 -70 531 73
976 209 1440 440 368 184 616 347 966 638 92 77 410 400 502 511 460 552 770
1160 937 1838 107 434 147 838 126 1257 -25 491 -92 859 -231 1279 -318 957
-964 1798 -1807 2354 -389 257 -781 436 -1288 588 -16 5 -33 9 -37 9 -4 0 14
-39 39 -87z"/>
<path d="M5545 8242 c-71 -70 -209 -203 -305 -296 -96 -93 -205 -198 -241
-234 l-66 -64 -78 17 c-112 25 -200 16 -317 -33 -51 -21 -93 -42 -95 -47 -2
-6 38 -18 88 -28 120 -23 228 -66 335 -133 161 -101 274 -227 359 -398 50
-103 55 -108 64 -84 41 107 46 250 11 341 -12 31 -20 63 -18 70 2 7 132 137
289 290 l287 277 509 0 c585 0 587 0 660 75 54 57 72 126 53 206 -16 65 -86
141 -146 158 -26 7 -244 11 -649 11 l-610 0 -130 -128z"/>
<path d="M6809 7273 c-103 -217 -138 -293 -196 -428 -89 -208 -153 -399 -160
-483 -10 -118 35 -230 126 -315 198 -185 506 -121 624 131 28 60 32 77 32 157
0 106 -21 178 -119 423 -70 176 -257 582 -268 582 -4 0 -21 -30 -39 -67z"/>
<path d="M2926 6938 l-58 -53 -23 -140 c-12 -77 -33 -212 -45 -300 l-23 -160
-97 -140 c-53 -77 -180 -259 -281 -405 -174 -249 -362 -521 -634 -915 l-117
-170 -49 3 c-65 5 -112 -12 -148 -53 -38 -43 -53 -98 -42 -148 12 -52 33 -81
83 -115 98 -66 688 -432 712 -442 59 -22 130 -4 178 47 55 58 64 139 23 210
-22 37 -24 46 -13 61 91 128 575 742 585 742 7 0 185 -102 395 -227 211 -124
440 -260 511 -301 l128 -74 347 142 c191 78 359 148 373 155 14 8 30 28 36 47
6 18 63 184 126 368 63 184 112 341 110 348 -3 6 -11 12 -19 12 -8 0 -14 5
-14 10 0 6 -7 10 -15 10 -8 0 -15 3 -15 8 0 4 -17 18 -38 32 -20 14 -44 33
-53 42 -9 10 -21 18 -27 18 -6 0 -12 6 -15 13 -3 8 -8 9 -14 2 -8 -8 -131
-319 -209 -530 -32 -87 -78 -121 -273 -204 -162 -68 -177 -73 -231 -69 -49 3
-73 13 -142 55 -46 27 -200 121 -343 208 -143 86 -271 167 -283 179 -43 38
-66 96 -65 159 1 53 7 68 66 165 295 490 449 746 466 781 l21 41 -21 17 c-12
10 -32 28 -45 41 -13 12 -26 22 -29 22 -3 0 -19 14 -37 30 -17 17 -37 30 -44
30 -8 0 -14 5 -14 10 0 6 -7 10 -16 10 -8 0 -12 5 -9 10 3 6 1 10 -5 10 -7 0
-25 14 -40 30 -15 17 -33 30 -39 30 -6 0 -11 5 -11 10 0 6 -7 10 -16 10 -8 0
-12 5 -9 10 3 6 0 10 -8 10 -7 0 -23 9 -35 20 -12 11 -24 20 -26 20 -3 0 -18
11 -33 25 -54 48 -88 75 -96 75 -4 0 -19 10 -32 23 -52 49 -86 77 -93 77 -4 0
-14 9 -22 20 -8 11 -20 20 -27 20 -7 0 -13 5 -13 10 0 6 -6 10 -13 10 -7 0
-19 9 -27 20 -8 11 -20 20 -27 20 -7 0 -13 5 -13 10 0 19 -17 9 -74 -42z"/>
<path d="M4760 6354 c0 -58 -5 -125 -11 -148 -13 -54 -59 -110 -109 -136 -41
-21 -233 -79 -343 -104 -117 -27 -193 -80 -237 -165 -44 -87 -43 -98 15 -505
30 -209 55 -383 55 -388 0 -17 59 23 93 63 37 43 67 113 67 158 0 14 -12 114
-26 222 -15 110 -24 212 -20 231 7 39 56 102 95 122 15 8 72 22 126 31 163 28
259 61 382 134 56 32 65 42 84 91 82 214 94 280 62 347 -28 60 -78 100 -159
127 l-74 25 0 -105z"/>
<path d="M7900 5767 c0 -28 -103 -223 -170 -321 -129 -190 -286 -350 -505
-516 -263 -199 -564 -345 -825 -402 -65 -14 -147 -22 -257 -25 -200 -6 -301 6
-573 71 -236 57 -363 53 -505 -14 -114 -54 -184 -107 -308 -237 l-38 -40 49
-84 c91 -152 154 -232 286 -364 246 -245 536 -404 871 -475 128 -28 446 -39
574 -21 737 105 1314 634 1475 1352 63 281 52 565 -35 987 -12 56 -26 102 -30
102 -5 0 -9 -6 -9 -13z"/>
<path d="M3961 3985 c-186 -41 -296 -99 -422 -225 -150 -150 -247 -324 -424
-760 -213 -525 -353 -738 -589 -895 -205 -136 -395 -150 -560 -40 -188 124
-288 366 -302 725 -12 300 54 588 208 913 34 70 59 129 57 130 -49 37 -235
145 -241 139 -14 -14 -122 -239 -163 -342 -52 -129 -109 -322 -132 -450 -25
-135 -25 -475 1 -614 80 -436 291 -740 579 -831 287 -92 613 0 869 243 211
201 355 454 438 767 30 113 103 335 136 415 46 109 140 287 196 372 75 112
216 256 321 327 42 29 118 69 167 90 50 21 93 41 97 44 12 12 -171 6 -236 -8z"/>
</g>
</svg>
