<svg width="335" height="132" viewBox="0 0 335 132" fill="none" xmlns="http://www.w3.org/2000/svg">
<path d="M-3.90106 -164L64.4794 -106.328V-11.7452L209.956 114.145V146.118L321.24 240.701L320.905 298" stroke="#FEFEFE" stroke-opacity="0.1"/>
<path d="M209.51 298L209.374 270.21V238.285L64.0195 112.577V18.1298L-10.9257 -45.0391V-75H337.296" stroke="#FEFEFE" stroke-opacity="0.1"/>
<path d="M105.483 -167L172.588 -108.124V-13.415L318.962 112.72L318.671 143.855L340.307 162" stroke="#FEFEFE" stroke-opacity="0.1"/>
<path d="M215.87 -165L283.916 -107.263V-12.5751L352.349 47" stroke="#FEFEFE" stroke-opacity="0.1"/>
<path d="M130.364 297L63.3485 239.292V144.632L-9.92218 81.3203V51H337.296" stroke="#FEFEFE" stroke-opacity="0.1"/>
<path d="M64.0632 112.959H-9.14062V209.029L64.0632 272.982V297.649" stroke="#FEFEFE" stroke-opacity="0.1"/>
<path d="M-9.14117 51.8086L26.5313 83.7851V146.406L64.0626 177.718" stroke="#FEFEFE" stroke-opacity="0.1"/>
<path d="M-11 -76.7651L26.5313 -44.7886V17.8336L64.0626 50.9896" stroke="#FEFEFE" stroke-opacity="0.1"/>
<path d="M98.4581 -78L136.021 -44.9592L135.62 17.8821L173.722 49" stroke="#FEFEFE" stroke-opacity="0.1"/>
<path d="M136.592 -12.7893L174.109 19.1568V81.7196L209.767 113L283.106 112.299V19.0849L210.213 -45.3255V-139.541L180.586 -165" stroke="#FEFEFE" stroke-opacity="0.1"/>
<path d="M-10.9257 -107L100.953 -12.9766V49.7747L136.592 83" stroke="#FEFEFE" stroke-opacity="0.1"/>
<path d="M136.592 82V144.719L174.314 177.926V240.602L238.951 298" stroke="#FEFEFE" stroke-opacity="0.1"/>
<path d="M208.845 -77L246.656 -45.0889L246.904 18.6578L284.11 51" stroke="#FEFEFE" stroke-opacity="0.1"/>
<path d="M211.856 52L247.498 83.2146L247.065 146.665L284.11 178" stroke="#FEFEFE" stroke-opacity="0.1"/>
<path d="M174.726 177V146.028L101.469 82.1068L101.541 49" stroke="#FEFEFE" stroke-opacity="0.1"/>
<path d="M209.849 18L210.046 81.8168L284.55 146.05V239.967L337.296 285" stroke="#FEFEFE" stroke-opacity="0.1"/>
<path d="M64.0646 -11.7488H-8.99423V19.0097L100.603 113.617V208.634L173.968 272.508V298" stroke="#FEFEFE" stroke-opacity="0.1"/>
<path d="M393.774 292.65V272.795L319.244 210.233V114.079H337.229" stroke="#FEFEFE" stroke-opacity="0.1"/>
<path d="M284.11 -12H208.845V19" stroke="#FEFEFE" stroke-opacity="0.1"/>
<path d="M208.845 113V209.278L284.11 272.916V298" stroke="#FEFEFE" stroke-opacity="0.1"/>
<path d="M246.979 83H283.228L282.879 113.834L320.236 146" stroke="#FEFEFE" stroke-opacity="0.1"/>
<path d="M174.718 83L174.726 114L101.469 113.1" stroke="#FEFEFE" stroke-opacity="0.1"/>
<path d="M173.722 -140L319.307 -12.8328V81.9521L337.296 99" stroke="#FEFEFE" stroke-opacity="0.1"/>
<path d="M173.722 114L230.923 165" stroke="#FEFEFE" stroke-opacity="0.1"/>
</svg>
